<svg xmlns="http://www.w3.org/2000/svg" viewBox="176 586 1634 791" width="1634" height="791" fill="none">
  <path fill="#000000" fill-rule="evenodd" d="M362.0 622.0 L370.0 628.0 L372.0 638.0 L374.0 638.0 L376.0 656.0 L378.0 656.0 L378.0 678.0 L380.0 678.0 L380.0 1242.0 L412.0 1246.0 L412.0 1248.0 L420.0 1248.0 L420.0 1250.0 L446.0 1256.0 L458.0 1262.0 L472.0 1276.0 L470.0 1280.0 L474.0 1280.0 L474.0 1286.0 L476.0 1286.0 L476.0 1288.0 L470.0 1288.0 L470.0 1326.0 L448.0 1324.0 L428.0 1334.0 L424.0 1332.0 L418.0 1336.0 L392.0 1338.0 L392.0 1340.0 L332.0 1340.0 L332.0 1338.0 L316.0 1338.0 L316.0 1336.0 L292.0 1332.0 L288.0 1328.0 L274.0 1324.0 L274.0 1320.0 L268.0 1322.0 L266.0 1318.0 L262.0 1318.0 L262.0 1314.0 L256.0 1312.0 L254.0 1308.0 L256.0 1304.0 L252.0 1304.0 L254.0 1300.0 L250.0 1298.0 L252.0 1278.0 L256.0 1276.0 L256.0 1272.0 L262.0 1270.0 L262.0 1266.0 L270.0 1264.0 L274.0 1258.0 L280.0 1258.0 L280.0 1256.0 L286.0 1256.0 L290.0 1252.0 L298.0 1252.0 L304.0 1248.0 L312.0 1248.0 L312.0 1246.0 L346.0 1244.0 L346.0 672.0 L348.0 672.0 L350.0 644.0 L356.0 634.0 L356.0 628.0Z M596.0 964.0 L742.0 964.0 L742.0 966.0 L752.0 966.0 L752.0 968.0 L774.0 974.0 L776.0 978.0 L780.0 978.0 L794.0 990.0 L794.0 994.0 L798.0 996.0 L806.0 1012.0 L808.0 1028.0 L810.0 1028.0 L810.0 1068.0 L808.0 1068.0 L804.0 1088.0 L800.0 1096.0 L796.0 1098.0 L796.0 1102.0 L788.0 1108.0 L788.0 1112.0 L782.0 1114.0 L778.0 1120.0 L774.0 1120.0 L772.0 1124.0 L764.0 1128.0 L744.0 1132.0 L744.0 1134.0 L732.0 1134.0 L732.0 1136.0 L650.0 1136.0 L650.0 1250.0 L596.0 1250.0Z M896.0 964.0 L958.0 964.0 L964.0 988.0 L968.0 992.0 L976.0 1022.0 L980.0 1026.0 L990.0 1062.0 L994.0 1066.0 L1002.0 1096.0 L1006.0 1100.0 L1014.0 1130.0 L1018.0 1134.0 L1026.0 1164.0 L1030.0 1168.0 L1038.0 1198.0 L1042.0 1202.0 L1042.0 1208.0 L1044.0 1208.0 L1044.0 1214.0 L1046.0 1214.0 L1046.0 1220.0 L1048.0 1220.0 L1048.0 1226.0 L1050.0 1226.0 L1050.0 1232.0 L1052.0 1232.0 L1052.0 1238.0 L1058.0 1250.0 L1000.0 1250.0 L982.0 1192.0 L872.0 1192.0 L862.0 1224.0 L860.0 1224.0 L860.0 1230.0 L858.0 1230.0 L854.0 1250.0 L796.0 1250.0 L802.0 1238.0 L810.0 1208.0 L814.0 1204.0 L824.0 1168.0 L828.0 1164.0 L836.0 1134.0 L840.0 1130.0 L848.0 1100.0 L852.0 1096.0 L860.0 1066.0 L864.0 1062.0 L872.0 1032.0 L876.0 1028.0 L886.0 992.0 L890.0 988.0Z M1086.0 964.0 L1232.0 964.0 L1232.0 966.0 L1242.0 966.0 L1242.0 968.0 L1260.0 972.0 L1284.0 990.0 L1298.0 1018.0 L1300.0 1068.0 L1298.0 1068.0 L1294.0 1088.0 L1290.0 1096.0 L1286.0 1098.0 L1286.0 1102.0 L1278.0 1108.0 L1276.0 1114.0 L1272.0 1114.0 L1268.0 1120.0 L1264.0 1120.0 L1256.0 1128.0 L1268.0 1152.0 L1276.0 1178.0 L1282.0 1186.0 L1286.0 1202.0 L1292.0 1210.0 L1300.0 1236.0 L1306.0 1244.0 L1306.0 1250.0 L1250.0 1250.0 L1248.0 1248.0 L1248.0 1242.0 L1244.0 1238.0 L1244.0 1232.0 L1240.0 1228.0 L1240.0 1222.0 L1228.0 1198.0 L1226.0 1186.0 L1222.0 1182.0 L1222.0 1176.0 L1218.0 1172.0 L1218.0 1166.0 L1214.0 1162.0 L1206.0 1136.0 L1140.0 1136.0 L1140.0 1250.0 L1086.0 1250.0Z M650.0 1012.0 L728.0 1012.0 L728.0 1014.0 L740.0 1016.0 L754.0 1030.0 L756.0 1044.0 L758.0 1044.0 L758.0 1058.0 L756.0 1058.0 L756.0 1066.0 L752.0 1074.0 L740.0 1084.0 L734.0 1084.0 L728.0 1088.0 L650.0 1088.0Z M1140.0 1012.0 L1218.0 1012.0 L1218.0 1014.0 L1230.0 1016.0 L1232.0 1020.0 L1240.0 1024.0 L1240.0 1028.0 L1246.0 1034.0 L1248.0 1058.0 L1246.0 1058.0 L1246.0 1066.0 L1242.0 1074.0 L1234.0 1082.0 L1218.0 1086.0 L1218.0 1088.0 L1140.0 1088.0Z M926.0 1022.0 L928.0 1022.0 L928.0 1028.0 L930.0 1028.0 L930.0 1034.0 L932.0 1034.0 L932.0 1040.0 L934.0 1040.0 L934.0 1046.0 L936.0 1046.0 L936.0 1052.0 L938.0 1052.0 L938.0 1058.0 L944.0 1070.0 L944.0 1078.0 L946.0 1078.0 L966.0 1144.0 L888.0 1144.0Z"></path>
  <path fill="#8FFF00" fill-rule="evenodd" d="M408.0 632.0 L430.0 632.0 L430.0 634.0 L448.0 638.0 L452.0 642.0 L484.0 652.0 L488.0 656.0 L494.0 656.0 L498.0 660.0 L504.0 660.0 L508.0 664.0 L514.0 664.0 L518.0 668.0 L524.0 668.0 L528.0 672.0 L534.0 672.0 L538.0 676.0 L544.0 676.0 L548.0 680.0 L554.0 680.0 L578.0 692.0 L610.0 702.0 L630.0 712.0 L638.0 720.0 L638.0 726.0 L640.0 726.0 L638.0 736.0 L630.0 744.0 L614.0 752.0 L592.0 758.0 L588.0 762.0 L582.0 762.0 L578.0 766.0 L572.0 766.0 L548.0 778.0 L536.0 780.0 L532.0 784.0 L526.0 784.0 L522.0 788.0 L516.0 788.0 L512.0 792.0 L506.0 792.0 L502.0 796.0 L496.0 796.0 L492.0 800.0 L486.0 800.0 L482.0 804.0 L476.0 804.0 L472.0 808.0 L466.0 808.0 L462.0 812.0 L456.0 812.0 L432.0 824.0 L402.0 822.0 L396.0 816.0 L392.0 816.0 L388.0 810.0 L388.0 648.0 L394.0 638.0 L408.0 634.0Z"></path>
  <path fill="#8FFF00" fill-rule="evenodd" d="M1374.0 964.0 L1534.0 964.0 L1534.0 1012.0 L1414.0 1012.0 L1412.0 1026.0 L1410.0 1026.0 L1410.0 1038.0 L1408.0 1038.0 L1402.0 1072.0 L1406.0 1072.0 L1410.0 1066.0 L1418.0 1064.0 L1420.0 1060.0 L1426.0 1060.0 L1438.0 1054.0 L1462.0 1052.0 L1462.0 1054.0 L1476.0 1054.0 L1476.0 1056.0 L1490.0 1058.0 L1506.0 1066.0 L1508.0 1070.0 L1512.0 1070.0 L1528.0 1086.0 L1528.0 1090.0 L1532.0 1092.0 L1540.0 1108.0 L1542.0 1120.0 L1544.0 1120.0 L1548.0 1158.0 L1546.0 1158.0 L1546.0 1174.0 L1544.0 1174.0 L1540.0 1196.0 L1534.0 1208.0 L1530.0 1210.0 L1530.0 1214.0 L1526.0 1216.0 L1526.0 1220.0 L1512.0 1234.0 L1508.0 1234.0 L1504.0 1240.0 L1488.0 1248.0 L1482.0 1248.0 L1478.0 1252.0 L1456.0 1254.0 L1456.0 1256.0 L1428.0 1256.0 L1428.0 1254.0 L1416.0 1254.0 L1416.0 1252.0 L1408.0 1252.0 L1398.0 1246.0 L1392.0 1246.0 L1390.0 1242.0 L1376.0 1236.0 L1358.0 1218.0 L1358.0 1214.0 L1354.0 1212.0 L1344.0 1192.0 L1340.0 1166.0 L1394.0 1166.0 L1402.0 1188.0 L1414.0 1200.0 L1428.0 1204.0 L1428.0 1206.0 L1442.0 1206.0 L1442.0 1208.0 L1460.0 1206.0 L1472.0 1200.0 L1484.0 1188.0 L1490.0 1176.0 L1490.0 1168.0 L1492.0 1168.0 L1490.0 1130.0 L1484.0 1118.0 L1472.0 1106.0 L1460.0 1100.0 L1438.0 1098.0 L1438.0 1100.0 L1422.0 1102.0 L1414.0 1106.0 L1400.0 1120.0 L1398.0 1128.0 L1344.0 1128.0Z"></path>
  <path id="swoosh" fill="none" stroke="#000000" stroke-width="20" stroke-linecap="round" d="M470 1303 C 620 1325 780 1335 950 1339 C 1120 1343 1280 1342 1420 1335 C 1560 1327 1660 1318 1735 1307"></path>
</svg>